<svg width="50" height="50" viewBox="0 0 50 50" fill="none" xmlns="http://www.w3.org/2000/svg">
<g clip-path="url(#clip0_1024_1604)">
<path d="M46.3017 13.9439C46.7919 13.6895 47.3975 13.88 47.6322 14.3799C50.1076 19.655 50.6669 25.6408 49.1932 31.3C47.6353 37.2824 43.9162 42.4755 38.754 45.8765C33.5917 49.2775 27.3524 50.6453 21.2408 49.7158C15.1292 48.7862 9.57871 45.6252 5.66107 40.8432C1.74343 36.0611 -0.263506 29.9971 0.0277652 23.8221C0.319036 17.647 2.88786 11.7989 7.23823 7.40683C11.5886 3.01477 17.412 0.390288 23.584 0.0401355C29.4225 -0.291099 35.1813 1.43511 39.866 4.90019C40.31 5.22861 40.3776 5.85987 40.0317 6.29041L38.9356 7.65465C38.5897 8.08519 37.9616 8.15171 37.5153 7.82643C33.5553 4.9404 28.709 3.50541 23.7964 3.78412C18.5502 4.08174 13.6003 6.31255 9.9025 10.0458C6.20468 13.7791 4.02118 18.75 3.7736 23.9988C3.52602 29.2476 5.23192 34.4019 8.56191 38.4667C11.8919 42.5314 16.6098 45.2183 21.8047 46.0084C26.9996 46.7985 32.303 45.6359 36.6909 42.745C41.0788 39.8541 44.24 35.44 45.5642 30.355C46.8042 25.5932 46.3509 20.5594 44.3006 16.1089C44.0695 15.6073 44.2583 15.0045 44.7485 14.7501L46.3017 13.9439Z" fill="url(#paint0_linear_1024_1604)"/>
<path d="M41.4218 8.03585C41.4464 8.19621 41.339 8.34705 41.1795 8.37636L36.2577 9.2806C35.9927 9.32928 35.8029 9.0311 35.9591 8.81159L40.1227 2.96101C40.2789 2.74151 40.6228 2.8232 40.6636 3.08951L41.4218 8.03585Z" fill="#FF0055"/>
</g>
<defs>
<linearGradient id="paint0_linear_1024_1604" x1="25" y1="0" x2="25" y2="50" gradientUnits="userSpaceOnUse">
<stop stop-color="#FF0055"/>
<stop offset="1" stop-color="#6600FF"/>
</linearGradient>
<clipPath id="clip0_1024_1604">
<rect width="50" height="50" fill="white"/>
</clipPath>
</defs>
</svg>
