<svg width="18" height="4" viewBox="0 0 18 4" fill="none" xmlns="http://www.w3.org/2000/svg">
<path d="M1.61035 3.15039C0.885742 3.15039 0.366211 2.6377 0.379883 1.93359C0.366211 1.24316 0.885742 0.730469 1.61035 0.730469C2.31445 0.730469 2.84082 1.24316 2.85449 1.93359C2.84082 2.6377 2.31445 3.15039 1.61035 3.15039ZM9.00684 3.15039C8.28223 3.15039 7.7627 2.6377 7.77637 1.93359C7.7627 1.24316 8.28223 0.730469 9.00684 0.730469C9.71094 0.730469 10.2373 1.24316 10.251 1.93359C10.2373 2.6377 9.71094 3.15039 9.00684 3.15039ZM16.4033 3.15039C15.6787 3.15039 15.1592 2.6377 15.1729 1.93359C15.1592 1.24316 15.6787 0.730469 16.4033 0.730469C17.1074 0.730469 17.6338 1.24316 17.6475 1.93359C17.6338 2.6377 17.1074 3.15039 16.4033 3.15039Z" fill="white"/>
</svg>
