<svg width="118" height="35" viewBox="0 0 703 199" fill="none" xmlns="http://www.w3.org/2000/svg">
<path d="M281.08 57.84V106.096H293.496C305.656 106.096 311.8 103.664 311.8 97.904C311.8 92.144 305.656 89.84 293.496 89.84H282.36L286.2 57.84H301.944C340.856 57.84 352.76 74.608 352.76 98.544C352.76 122.608 340.856 139.376 301.944 139.376H281.08V165.36H237.56V57.84H281.08Z" fill="currentColor"/>
<path d="M437.19 57.84L469.19 165.36H424.39L420.806 150H392.134L388.55 165.36H343.75L375.75 57.84H437.19ZM399.302 119.28H413.638L406.47 88.688L399.302 119.28Z" fill="currentColor"/>
<path d="M471.81 165.36V57.84H516.61L544.77 109.68V57.84H584.45V165.36H539.65L511.49 113.52V165.36H471.81Z" fill="currentColor"/>
<path d="M664.44 106.48H702.84V165.36H648.056C605.944 165.36 588.28 146.8 588.28 110.32C588.28 73.84 605.944 55.28 648.056 55.28C667.64 55.28 682.232 56.944 697.72 59.76L695.16 94.576C681.464 93.168 667.64 91.76 653.944 91.76C641.144 91.76 633.08 97.52 633.08 110.32C633.08 123.12 641.144 128.88 653.944 128.88H664.44V106.48Z" fill="currentColor"/>
<path d="M104.5 0C104.5 0 109.473 11.3741 113 18.5C115.44 23.4313 116.494 26.3919 119.5 31C121.783 34.4998 123.415 36.2167 126 39.5C129.434 43.8609 127.66 41.992 131.5 46C135.135 49.7939 136.5 51.5 136.5 51.5C136.5 51.5 152.218 62.017 157 63C161.626 63.951 165.783 64.241 170.5 64C175.939 63.7221 182.5 61 182.5 61L203.5 54C203.5 54 195.389 61.8287 191.5 66C188.837 68.8565 184 74 184 74C184 74 181.796 77.5462 180.5 80C178.64 83.5213 178.5 88.5174 178.5 92.5C178.5 92.5 180.133 99.7663 181.5 102.5C182.476 104.453 183.716 106.234 185 108C187.297 111.158 187.158 110.497 190 112.5C193.012 114.622 192.272 114.306 196.5 116C200.413 117.568 210.5 121 210.5 121L200 122.5C200 122.5 196.739 123.509 193 125L192.666 125.133C189.533 126.381 184.31 128.462 181.5 130C177.728 133.098 171.243 137.664 169 142C167.099 145.675 164.599 149.706 164 155.5C162.5 170 168.167 190.5 169.5 197C169.5 197 161.18 184.901 153.5 179.5C148.924 176.281 141.5 172 141.5 172C141.5 172 134.479 167.551 128 166.5C123.567 165.781 119.888 165.542 115.5 166.5C110.125 167.674 106.448 169.395 102 172C94.4345 178.455 73 198.5 73 198.5C73 198.5 75.9269 185.181 76.5 176.5C76.9116 170.265 76.5 166.748 76.5 160.5C76.5 154.447 76.8687 151.042 76.5 145C76.1164 138.715 76.5169 134.965 74.5 129C72.7929 123.951 71.7037 120.832 68 117C65.0645 113.962 59 111 59 111C59 111 49.9027 106.636 44 104C35.6886 100.289 31.2348 97.56 22.5 95C13.9357 92.4899 0 91 0 91C0 91 36.7454 85.4632 59 77.5C65.9303 75.0202 70.0232 73.9972 76.5 70.5C80.3611 68.4152 82.3816 66.9822 86 64.5C90.0254 61.7385 93.03 60.8741 96 57C98.7143 53.4595 99.1739 50.7596 100.5 46.5C102.323 40.6458 103 31 103 31V24.5L104.5 0ZM115 56.5C115 56.5 109.5 70.2317 100 79.5C90.9153 88.3632 71.5 96 71.5 96C71.515 96.0111 86.9865 107.486 92.5 118C98.3159 129.09 98.5 149.5 98.5 149.5C98.5 149.5 108.328 145.402 115 144.5C120.612 143.742 123.905 143.629 129.5 144.5C135.175 145.383 143.5 149 143.5 149C143.5 149 143.844 142.179 145 138C146.374 133.031 147.499 130.191 150.5 126C153.072 122.408 155.913 120.58 159.5 118C163.042 115.452 168.492 113.004 168.5 113C168.5 113 164.375 107.785 162.5 104C161.019 101.01 160.432 99.2039 159.5 96C158.334 91.9919 158.501 89.1742 158.5 85C158.499 82.0487 158.5 78.0096 158.5 78C158.5 78 149.597 77.9085 145 77C140.45 76.1008 135.507 73.5038 135.5 73.5C135.5 73.5 128.971 68.7876 125 65.5C120.953 62.1493 115 56.5 115 56.5Z" fill="currentColor"/>
</svg>
