<svg width="17" height="17" viewBox="0 0 17 17" fill="none" xmlns="http://www.w3.org/2000/svg">
<path d="M14.6978 10.802C15.9693 10.802 17 9.77128 17 8.49978C17 7.22827 15.9693 6.19751 14.6978 6.19751C13.4263 6.19751 12.3955 7.22827 12.3955 8.49978C12.3955 9.77128 13.4263 10.802 14.6978 10.802Z" fill="url(#paint0_radial_4038_1467)"/>
<path d="M14.6978 10.802C15.9693 10.802 17 9.77128 17 8.49978C17 7.22827 15.9693 6.19751 14.6978 6.19751C13.4263 6.19751 12.3955 7.22827 12.3955 8.49978C12.3955 9.77128 13.4263 10.802 14.6978 10.802Z" fill="url(#paint1_linear_4038_1467)"/>
<path d="M1.8916 11.6016H4.84113V16.0344C4.84113 16.1151 4.80906 16.1926 4.75196 16.2497C4.69487 16.3068 4.61743 16.3388 4.53668 16.3388H2.19605C2.11531 16.3388 2.03787 16.3068 1.98077 16.2497C1.92368 16.1926 1.8916 16.1151 1.8916 16.0344V11.6016Z" fill="url(#paint2_radial_4038_1467)"/>
<path d="M1.8916 11.6016H4.84113V16.0344C4.84113 16.1151 4.80906 16.1926 4.75196 16.2497C4.69487 16.3068 4.61743 16.3388 4.53668 16.3388H2.19605C2.11531 16.3388 2.03787 16.3068 1.98077 16.2497C1.92368 16.1926 1.8916 16.1151 1.8916 16.0344V11.6016Z" fill="url(#paint3_linear_4038_1467)"/>
<g filter="url(#filter0_i_4038_1467)">
<path d="M0 5.37294C0 5.25182 0.0481143 5.13566 0.133758 5.05002C0.219402 4.96437 0.33556 4.91626 0.456678 4.91626H6.09331V12.15H0.456678C0.33556 12.15 0.219402 12.1019 0.133758 12.0163C0.0481143 11.9306 0 11.8145 0 11.6934V5.37294Z" fill="url(#paint4_linear_4038_1467)"/>
</g>
<g filter="url(#filter1_i_4038_1467)">
<path d="M12.2243 2.29614C10.274 3.51395 8.2567 4.72263 6.09326 4.9126V12.1494H6.18825C8.31576 12.3656 10.302 13.556 12.2243 14.7568L12.9136 14.663V12.1488C13.034 12.1477 13.149 12.0991 13.2338 12.0136C13.3185 11.928 13.366 11.8125 13.366 11.6921V5.37355C13.366 5.25316 13.3185 5.13764 13.2338 5.05212C13.149 4.9666 13.034 4.91799 12.9136 4.91687V2.3893L12.2243 2.29614Z" fill="url(#paint5_radial_4038_1467)"/>
</g>
<g filter="url(#filter2_i_4038_1467)">
<path d="M15.6685 2.52547C15.6685 1.49542 14.8336 0.6604 13.8037 0.6604C12.7739 0.6604 11.939 1.49542 11.939 2.52547V14.4746C11.939 15.5047 12.7739 16.3397 13.8037 16.3397C14.8336 16.3397 15.6685 15.5047 15.6685 14.4746V2.52547Z" fill="url(#paint6_linear_4038_1467)"/>
<path d="M15.6685 2.52547C15.6685 1.49542 14.8336 0.6604 13.8037 0.6604C12.7739 0.6604 11.939 1.49542 11.939 2.52547V14.4746C11.939 15.5047 12.7739 16.3397 13.8037 16.3397C14.8336 16.3397 15.6685 15.5047 15.6685 14.4746V2.52547Z" fill="url(#paint7_radial_4038_1467)"/>
</g>
<defs>
<filter id="filter0_i_4038_1467" x="0" y="3.91626" width="6.21826" height="8.23389" filterUnits="userSpaceOnUse" color-interpolation-filters="sRGB">
<feFlood flood-opacity="0" result="BackgroundImageFix"/>
<feBlend mode="normal" in="SourceGraphic" in2="BackgroundImageFix" result="shape"/>
<feColorMatrix in="SourceAlpha" type="matrix" values="0 0 0 0 0 0 0 0 0 0 0 0 0 0 0 0 0 0 127 0" result="hardAlpha"/>
<feOffset dx="0.125" dy="-1"/>
<feGaussianBlur stdDeviation="0.75"/>
<feComposite in2="hardAlpha" operator="arithmetic" k2="-1" k3="1"/>
<feColorMatrix type="matrix" values="0 0 0 0 0.698039 0 0 0 0 0.160784 0 0 0 0 0.352941 0 0 0 1 0"/>
<feBlend mode="normal" in2="shape" result="effect1_innerShadow_4038_1467"/>
</filter>
<filter id="filter1_i_4038_1467" x="6.09326" y="0.796143" width="7.27295" height="13.9607" filterUnits="userSpaceOnUse" color-interpolation-filters="sRGB">
<feFlood flood-opacity="0" result="BackgroundImageFix"/>
<feBlend mode="normal" in="SourceGraphic" in2="BackgroundImageFix" result="shape"/>
<feColorMatrix in="SourceAlpha" type="matrix" values="0 0 0 0 0 0 0 0 0 0 0 0 0 0 0 0 0 0 127 0" result="hardAlpha"/>
<feOffset dy="-2"/>
<feGaussianBlur stdDeviation="0.75"/>
<feComposite in2="hardAlpha" operator="arithmetic" k2="-1" k3="1"/>
<feColorMatrix type="matrix" values="0 0 0 0 0.717647 0 0 0 0 0.65098 0 0 0 0 0.827451 0 0 0 1 0"/>
<feBlend mode="normal" in2="shape" result="effect1_innerShadow_4038_1467"/>
</filter>
<filter id="filter2_i_4038_1467" x="11.939" y="0.1604" width="3.97949" height="16.1792" filterUnits="userSpaceOnUse" color-interpolation-filters="sRGB">
<feFlood flood-opacity="0" result="BackgroundImageFix"/>
<feBlend mode="normal" in="SourceGraphic" in2="BackgroundImageFix" result="shape"/>
<feColorMatrix in="SourceAlpha" type="matrix" values="0 0 0 0 0 0 0 0 0 0 0 0 0 0 0 0 0 0 127 0" result="hardAlpha"/>
<feOffset dx="0.25" dy="-0.5"/>
<feGaussianBlur stdDeviation="0.5"/>
<feComposite in2="hardAlpha" operator="arithmetic" k2="-1" k3="1"/>
<feColorMatrix type="matrix" values="0 0 0 0 0.698039 0 0 0 0 0.164706 0 0 0 0 0.372549 0 0 0 1 0"/>
<feBlend mode="normal" in2="shape" result="effect1_innerShadow_4038_1467"/>
</filter>
<radialGradient id="paint0_radial_4038_1467" cx="0" cy="0" r="1" gradientTransform="matrix(-1.23684 0.913344 -0.881754 -1.19407 16.7717 7.71977)" gradientUnits="userSpaceOnUse">
<stop offset="0.363" stop-color="#6E6279"/>
<stop offset="1" stop-color="#5A4C67"/>
</radialGradient>
<linearGradient id="paint1_linear_4038_1467" x1="15.5923" y1="10.802" x2="15.8967" y2="8.67088" gradientUnits="userSpaceOnUse">
<stop offset="0.306" stop-color="#3A3141"/>
<stop offset="1" stop-color="#3A3141" stop-opacity="0"/>
</linearGradient>
<radialGradient id="paint2_radial_4038_1467" cx="0" cy="0" r="1" gradientUnits="userSpaceOnUse" gradientTransform="translate(3.36637 16.0161) rotate(-90) scale(3.95788 4.40368)">
<stop offset="0.429" stop-color="#C0B2D4"/>
<stop offset="1" stop-color="#B4A0BC"/>
</radialGradient>
<linearGradient id="paint3_linear_4038_1467" x1="3.36637" y1="16.3394" x2="3.36637" y2="15.3311" gradientUnits="userSpaceOnUse">
<stop stop-color="#B5A4D2"/>
<stop offset="1" stop-color="#B5A4D2" stop-opacity="0"/>
</linearGradient>
<linearGradient id="paint4_linear_4038_1467" x1="0.255131" y1="9.54698" x2="6.53476" y2="9.54698" gradientUnits="userSpaceOnUse">
<stop stop-color="#F44065"/>
<stop offset="1" stop-color="#D52E84"/>
</linearGradient>
<radialGradient id="paint5_radial_4038_1467" cx="0" cy="0" r="1" gradientUnits="userSpaceOnUse" gradientTransform="translate(6.83917 3.3051) rotate(69.2417) scale(10.0933 10.7031)">
<stop offset="0.253" stop-color="#CFCCD5"/>
<stop offset="1" stop-color="#C1B6D2"/>
</radialGradient>
<linearGradient id="paint6_linear_4038_1467" x1="13.804" y1="0.6604" x2="13.804" y2="16.3397" gradientUnits="userSpaceOnUse">
<stop stop-color="#F94E87"/>
<stop offset="1" stop-color="#D21F6B"/>
</linearGradient>
<radialGradient id="paint7_radial_4038_1467" cx="0" cy="0" r="1" gradientUnits="userSpaceOnUse" gradientTransform="translate(15.1357 3.9905) rotate(90) scale(8.60077 2.05505)">
<stop offset="0.283" stop-color="#FF4F8A"/>
<stop offset="1" stop-color="#FF4F8A" stop-opacity="0"/>
</radialGradient>
</defs>
</svg>
