<svg width="105" height="19" viewBox="0 0 105 19" fill="none" xmlns="http://www.w3.org/2000/svg">
<path d="M9.12208 13.6018C9.12208 13.1529 9.02674 12.7735 8.83608 12.4639C8.66008 12.1543 8.33741 11.8757 7.86808 11.6279C7.39874 11.3648 6.70941 11.0861 5.80008 10.7919C4.14274 10.2501 2.85208 9.58438 1.92808 8.79483C1.01874 7.98979 0.564078 6.94479 0.564078 5.65983C0.564078 4.74642 0.806078 3.94138 1.29008 3.24472C1.77408 2.53256 2.44141 1.98298 3.29208 1.59594C4.15741 1.2089 5.14741 1.01538 6.26208 1.01538C7.42074 1.01538 8.43274 1.23987 9.29808 1.68883C10.1634 2.13779 10.8307 2.74931 11.3001 3.52338C11.7694 4.29745 12.0041 5.16442 12.0041 6.12427H9.10008C9.10008 5.30376 8.85808 4.65353 8.37408 4.1736C7.89008 3.69367 7.17141 3.45372 6.21808 3.45372C5.32341 3.45372 4.64141 3.65498 4.17208 4.05749C3.70274 4.46001 3.46808 4.98638 3.46808 5.6366C3.46808 6.20942 3.73208 6.70483 4.26008 7.12283C4.80274 7.52534 5.64608 7.90464 6.79008 8.26072C8.57941 8.81805 9.89941 9.51472 10.7501 10.3507C11.6007 11.1867 12.0261 12.2626 12.0261 13.5786C12.0261 15.0029 11.5127 16.1253 10.4861 16.9458C9.45941 17.7663 8.08074 18.1766 6.35008 18.1766C5.27941 18.1766 4.26741 17.9753 3.31408 17.5728C2.36074 17.1703 1.58341 16.5666 0.982078 15.7615C0.380745 14.9564 0.0800781 13.9734 0.0800781 12.8123H2.98408C2.98408 13.8185 3.28474 14.5616 3.88608 15.0416C4.50208 15.5216 5.32341 15.7615 6.35008 15.7615C7.24474 15.7615 7.92674 15.568 8.39608 15.1809C8.88008 14.7785 9.12208 14.252 9.12208 13.6018ZM16.704 3.70916H11.842V1.2476H24.514V3.70916H19.608V17.9444H16.704V3.70916ZM30.7518 1.2476C32.5852 1.2476 34.0005 1.68109 34.9978 2.54805C35.9952 3.39953 36.4938 4.63805 36.4938 6.2636C36.4938 7.39376 36.2445 8.34587 35.7458 9.11994C35.2472 9.87853 34.5358 10.4591 33.6118 10.8616L37.1318 17.7818V17.9444H34.0078L30.9058 11.6279H27.9578V17.9444H25.0758V1.2476H30.7518ZM27.9578 9.14316H30.7738C31.6832 9.14316 32.3798 8.9032 32.8638 8.42327C33.3478 7.92787 33.5898 7.2699 33.5898 6.44938C33.5898 5.58242 33.3552 4.90898 32.8858 4.42905C32.4165 3.94912 31.7052 3.70916 30.7518 3.70916H27.9578V9.14316ZM37.6609 1.2476H48.0669V3.70916H40.5649V8.1446H47.0109V10.5365H40.5649V15.4828H48.1109V17.9444H37.6609V1.2476ZM54.1989 1.2476H56.8389L62.8009 17.9444H59.7649L58.5329 14.2056H52.5269L51.3169 17.9444H48.2589L54.1989 1.2476ZM55.5409 4.98638L53.3409 11.7208H57.7189L55.5409 4.98638ZM75.6528 1.2476H79.4148V17.9444H76.5328V12.7426L76.8188 5.2186L72.2648 17.9444H70.2188L65.6868 5.2186L65.9508 12.7426V17.9444H63.0468V1.2476H66.8308L71.2528 13.834L75.6528 1.2476ZM81.0894 1.2476H91.4954V3.70916H83.9934V8.1446H90.4394V10.5365H83.9934V15.4828H91.5394V17.9444H81.0894V1.2476ZM97.8905 1.2476C99.7238 1.2476 101.139 1.68109 102.137 2.54805C103.134 3.39953 103.633 4.63805 103.633 6.2636C103.633 7.39376 103.383 8.34587 102.885 9.11994C102.386 9.87853 101.675 10.4591 100.751 10.8616L104.271 17.7818V17.9444H101.147L98.0445 11.6279H95.0965V17.9444H92.2145V1.2476H97.8905ZM95.0965 9.14316H97.9125C98.8218 9.14316 99.5185 8.9032 100.003 8.42327C100.487 7.92787 100.729 7.2699 100.729 6.44938C100.729 5.58242 100.494 4.90898 100.025 4.42905C99.5552 3.94912 98.8438 3.70916 97.8905 3.70916H95.0965V9.14316Z" fill="white"/>
</svg>
