<svg width="14" height="17" viewBox="0 0 14 17" fill="none" xmlns="http://www.w3.org/2000/svg">
<path d="M0 3.7085C0 3.21122 0.197544 2.7343 0.549175 2.38267C0.900806 2.03104 1.37772 1.8335 1.875 1.8335H11.4583C11.7046 1.8335 11.9484 1.88199 12.1759 1.97622C12.4033 2.07045 12.61 2.20856 12.7842 2.38267C12.9583 2.55678 13.0964 2.76348 13.1906 2.99096C13.2848 3.21845 13.3333 3.46227 13.3333 3.7085V14.9585C13.3333 15.2047 13.2848 15.4485 13.1906 15.676C13.0964 15.9035 12.9583 16.1102 12.7842 16.2843C12.61 16.4584 12.4033 16.5965 12.1759 16.6908C11.9484 16.785 11.7046 16.8335 11.4583 16.8335H1.875C1.37772 16.8335 0.900806 16.636 0.549175 16.2843C0.197544 15.9327 0 15.4558 0 14.9585V3.7085Z" fill="url(#paint0_linear_4038_1486)"/>
<path d="M0 3.7085C0 3.21122 0.197544 2.7343 0.549175 2.38267C0.900806 2.03104 1.37772 1.8335 1.875 1.8335H11.4583C11.7046 1.8335 11.9484 1.88199 12.1759 1.97622C12.4033 2.07045 12.61 2.20856 12.7842 2.38267C12.9583 2.55678 13.0964 2.76348 13.1906 2.99096C13.2848 3.21845 13.3333 3.46227 13.3333 3.7085V14.9585C13.3333 15.2047 13.2848 15.4485 13.1906 15.676C13.0964 15.9035 12.9583 16.1102 12.7842 16.2843C12.61 16.4584 12.4033 16.5965 12.1759 16.6908C11.9484 16.785 11.7046 16.8335 11.4583 16.8335H1.875C1.37772 16.8335 0.900806 16.636 0.549175 16.2843C0.197544 15.9327 0 15.4558 0 14.9585V3.7085Z" fill="url(#paint1_radial_4038_1486)" fill-opacity="0.7"/>
<path d="M0 3.7085C0 3.21122 0.197544 2.7343 0.549175 2.38267C0.900806 2.03104 1.37772 1.8335 1.875 1.8335H11.4583C11.7046 1.8335 11.9484 1.88199 12.1759 1.97622C12.4033 2.07045 12.61 2.20856 12.7842 2.38267C12.9583 2.55678 13.0964 2.76348 13.1906 2.99096C13.2848 3.21845 13.3333 3.46227 13.3333 3.7085V14.9585C13.3333 15.2047 13.2848 15.4485 13.1906 15.676C13.0964 15.9035 12.9583 16.1102 12.7842 16.2843C12.61 16.4584 12.4033 16.5965 12.1759 16.6908C11.9484 16.785 11.7046 16.8335 11.4583 16.8335H1.875C1.37772 16.8335 0.900806 16.636 0.549175 16.2843C0.197544 15.9327 0 15.4558 0 14.9585V3.7085Z" fill="url(#paint2_radial_4038_1486)" fill-opacity="0.4"/>
<path d="M3.33301 2.04175C3.33301 2.53903 3.53055 3.01594 3.88218 3.36757C4.23381 3.7192 4.71073 3.91675 5.20801 3.91675H8.12467C8.62196 3.91675 9.09887 3.7192 9.4505 3.36757C9.80213 3.01594 9.99967 2.53903 9.99967 2.04175C9.99967 1.54447 9.80213 1.06755 9.4505 0.715923C9.09887 0.364292 8.62196 0.166748 8.12467 0.166748H5.20801C4.71073 0.166748 4.23381 0.364292 3.88218 0.715923C3.53055 1.06755 3.33301 1.54447 3.33301 2.04175Z" fill="url(#paint3_linear_4038_1486)"/>
<defs>
<linearGradient id="paint0_linear_4038_1486" x1="-2.63502e-08" y1="3.3335" x2="11.7883" y2="18.0693" gradientUnits="userSpaceOnUse">
<stop stop-color="#794AD5"/>
<stop offset="1" stop-color="#9260F4"/>
</linearGradient>
<radialGradient id="paint1_radial_4038_1486" cx="0" cy="0" r="1" gradientUnits="userSpaceOnUse" gradientTransform="translate(6.66667 1.00016) rotate(90) scale(5.14077 5.625)">
<stop stop-color="#0A1852"/>
<stop offset="0.9" stop-color="#0A1852" stop-opacity="0"/>
</radialGradient>
<radialGradient id="paint2_radial_4038_1486" cx="0" cy="0" r="1" gradientUnits="userSpaceOnUse" gradientTransform="translate(6.66667 2.3485) rotate(90) scale(2.32771 4.12748)">
<stop stop-color="#0A1852"/>
<stop offset="1" stop-color="#0A1852" stop-opacity="0"/>
</radialGradient>
<linearGradient id="paint3_linear_4038_1486" x1="6.66634" y1="0.166748" x2="6.66634" y2="3.91675" gradientUnits="userSpaceOnUse">
<stop stop-color="#FFE06B"/>
<stop offset="1" stop-color="#FAB500"/>
</linearGradient>
</defs>
</svg>
