<svg width="18" height="17" viewBox="0 0 18 17" fill="none" xmlns="http://www.w3.org/2000/svg">
<path d="M16.3672 7.55539L16.362 7.5531L2.42748 1.77347C2.31028 1.72442 2.18274 1.70518 2.05628 1.71748C1.92982 1.72978 1.80838 1.77323 1.70283 1.84395C1.5913 1.91702 1.4997 2.01668 1.43625 2.13395C1.3728 2.25121 1.33951 2.38242 1.33936 2.51575V6.21211C1.33942 6.39439 1.40306 6.57093 1.51932 6.71131C1.63558 6.85169 1.79717 6.94712 1.97624 6.98114L9.57616 8.38641C9.60602 8.39207 9.63297 8.40798 9.65236 8.43138C9.67175 8.45479 9.68236 8.48424 9.68236 8.51463C9.68236 8.54503 9.67175 8.57447 9.65236 8.59788C9.63297 8.62129 9.60602 8.6372 9.57616 8.64286L1.97657 10.0481C1.79755 10.0821 1.63597 10.1774 1.51966 10.3176C1.40335 10.4579 1.33958 10.6343 1.33936 10.8165V14.5135C1.33927 14.6408 1.37079 14.7662 1.4311 14.8783C1.49141 14.9904 1.57861 15.0858 1.68488 15.156C1.81271 15.2409 1.96274 15.2863 2.11622 15.2865C2.22291 15.2864 2.32852 15.265 2.42683 15.2235L16.361 9.47682L16.3672 9.47388C16.5548 9.39327 16.7146 9.25944 16.8269 9.08895C16.9392 8.91846 16.9991 8.71879 16.9991 8.51463C16.9991 8.31048 16.9392 8.11081 16.8269 7.94031C16.7146 7.76982 16.5548 7.63599 16.3672 7.55539Z" fill="#D4D4D4"/>
</svg>
