<svg width="18" height="16" viewBox="0 0 18 16" fill="none" xmlns="http://www.w3.org/2000/svg">
<path d="M0.490234 7.77344C0.490234 7.25586 0.841797 6.89453 1.34961 6.89453H11.2227L13.3027 6.97266L10.0996 4.0332L7.94141 1.83594C7.77539 1.67969 7.69727 1.44531 7.69727 1.21094C7.69727 0.722656 8.06836 0.361328 8.54688 0.361328C8.79102 0.361328 9.00586 0.458984 9.20117 0.654297L15.6758 7.10938C15.8125 7.24609 15.9102 7.40234 15.9492 7.56836V1.19141C15.9492 0.683594 16.3105 0.332031 16.8281 0.332031C17.3359 0.332031 17.6973 0.683594 17.6973 1.19141V14.3652C17.6973 14.8633 17.3359 15.2051 16.8281 15.2051C16.3105 15.2051 15.9492 14.8633 15.9492 14.3652V7.96875C15.9102 8.13477 15.8125 8.29102 15.6758 8.42773L9.20117 14.8828C9.00586 15.0781 8.79102 15.166 8.54688 15.166C8.06836 15.166 7.69727 14.8145 7.69727 14.3262C7.69727 14.0918 7.77539 13.8574 7.94141 13.6914L10.0996 11.5039L13.3125 8.57422L11.2227 8.64258H1.34961C0.841797 8.64258 0.490234 8.28125 0.490234 7.77344Z" fill="currentColor"/>
</svg>
