<svg width="19" height="16" viewBox="0 0 19 16" fill="none" xmlns="http://www.w3.org/2000/svg">
<path d="M0.730769 2.9087H11.0871C11.2383 3.33396 11.5183 3.70213 11.8884 3.96252C12.2585 4.22291 12.7006 4.36273 13.1538 4.36273C13.6071 4.36273 14.0492 4.22291 14.4193 3.96252C14.7894 3.70213 15.0693 3.33396 15.2206 2.9087H18.2692C18.463 2.9087 18.6489 2.83207 18.786 2.69567C18.923 2.55927 19 2.37427 19 2.18137C19 1.98847 18.923 1.80347 18.786 1.66707C18.6489 1.53067 18.463 1.45404 18.2692 1.45404H15.2206C15.0693 1.02877 14.7894 0.660605 14.4193 0.400212C14.0492 0.139819 13.6071 0 13.1538 0C12.7006 0 12.2585 0.139819 11.8884 0.400212C11.5183 0.660605 11.2383 1.02877 11.0871 1.45404H0.730769C0.536957 1.45404 0.351083 1.53067 0.214037 1.66707C0.0769915 1.80347 0 1.98847 0 2.18137C0 2.37427 0.0769915 2.55927 0.214037 2.69567C0.351083 2.83207 0.536957 2.9087 0.730769 2.9087ZM18.2692 13.0913H15.2206C15.0693 12.666 14.7894 12.2979 14.4193 12.0375C14.0492 11.7771 13.6071 11.6373 13.1538 11.6373C12.7006 11.6373 12.2585 11.7771 11.8884 12.0375C11.5183 12.2979 11.2383 12.666 11.0871 13.0913H0.730769C0.536957 13.0913 0.351083 13.1679 0.214037 13.3043C0.0769915 13.4407 0 13.6257 0 13.8186C0 14.0115 0.0769915 14.1965 0.214037 14.3329C0.351083 14.4693 0.536957 14.546 0.730769 14.546H11.0871C11.2383 14.9712 11.5183 15.3394 11.8884 15.5998C12.2585 15.8602 12.7006 16 13.1538 16C13.6071 16 14.0492 15.8602 14.4193 15.5998C14.7894 15.3394 15.0693 14.9712 15.2206 14.546H18.2692C18.463 14.546 18.6489 14.4693 18.786 14.3329C18.923 14.1965 19 14.0115 19 13.8186C19 13.6257 18.923 13.4407 18.786 13.3043C18.6489 13.1679 18.463 13.0913 18.2692 13.0913ZM18.2692 7.27267H7.91286C7.76165 6.84741 7.48172 6.47924 7.11161 6.21885C6.7415 5.95845 6.2994 5.81863 5.84615 5.81863C5.39291 5.81863 4.95081 5.95845 4.58069 6.21885C4.21058 6.47924 3.93066 6.84741 3.77945 7.27267H0.730769C0.536957 7.27267 0.351083 7.3493 0.214037 7.4857C0.0769915 7.6221 0 7.8071 0 8C0 8.1929 0.0769915 8.3779 0.214037 8.5143C0.351083 8.6507 0.536957 8.72733 0.730769 8.72733H3.77945C3.93066 9.15259 4.21058 9.52076 4.58069 9.78115C4.95081 10.0415 5.39291 10.1814 5.84615 10.1814C6.2994 10.1814 6.7415 10.0415 7.11161 9.78115C7.48172 9.52076 7.76165 9.15259 7.91286 8.72733H18.2692C18.463 8.72733 18.6489 8.6507 18.786 8.5143C18.923 8.3779 19 8.1929 19 8C19 7.8071 18.923 7.6221 18.786 7.4857C18.6489 7.3493 18.463 7.27267 18.2692 7.27267Z" fill="white"/>
</svg>
