<svg width="28" height="27" viewBox="0 0 28 27" fill="none" xmlns="http://www.w3.org/2000/svg">
<path d="M10.5122 13.5108C11.1996 13.5108 11.7569 12.9535 11.7569 12.2661C11.7569 11.5787 11.1996 11.0215 10.5122 11.0215C9.82482 11.0215 9.26758 11.5787 9.26758 12.2661C9.26758 12.9535 9.82482 13.5108 10.5122 13.5108Z" fill="currentColor"/>
<path d="M14.2486 20.1489C11.8931 20.1489 9.91209 18.6174 9.2851 16.5275C9.26756 16.4653 9.2648 16.3998 9.27702 16.3364C9.28925 16.2729 9.31613 16.2132 9.35552 16.162C9.39491 16.1108 9.44572 16.0694 9.5039 16.0413C9.56209 16.0132 9.62603 15.9991 9.69065 16H18.802C18.8666 15.9991 18.9305 16.0132 18.9887 16.0413C19.0469 16.0694 19.0977 16.1108 19.1371 16.162C19.1765 16.2132 19.2034 16.2729 19.2156 16.3364C19.2278 16.3998 19.2251 16.4653 19.2075 16.5275C18.5857 18.6174 16.6041 20.1489 14.2486 20.1489Z" fill="currentColor"/>
<path d="M17.98 13.5108C18.6674 13.5108 19.2246 12.9535 19.2246 12.2661C19.2246 11.5787 18.6674 11.0215 17.98 11.0215C17.2926 11.0215 16.7354 11.5787 16.7354 12.2661C16.7354 12.9535 17.2926 13.5108 17.98 13.5108Z" fill="currentColor"/>
<path d="M14.2459 24.2975C20.2034 24.2975 25.0328 19.468 25.0328 13.5106C25.0328 7.55311 20.2034 2.72363 14.2459 2.72363C8.28846 2.72363 3.45898 7.55311 3.45898 13.5106C3.45898 19.468 8.28846 24.2975 14.2459 24.2975Z" stroke="currentColor" stroke-miterlimit="10"/>
</svg>
