<svg width="18" height="18" viewBox="0 0 18 18" fill="none" xmlns="http://www.w3.org/2000/svg">
<path d="M12.6596 17H14.617C15.249 17 15.8551 16.7489 16.302 16.302C16.7489 15.8551 17 15.249 17 14.617V12.6596M17 5.34043V3.38298C17 2.75097 16.7489 2.14485 16.302 1.69796C15.8551 1.25106 15.249 1 14.617 1H12.6596M5.34043 17H3.38298C2.75097 17 2.14485 16.7489 1.69796 16.302C1.25106 15.8551 1 15.249 1 14.617V12.6596M1 5.34043V3.38298C1 2.75097 1.25106 2.14485 1.69796 1.69796C2.14485 1.25106 2.75097 1 3.38298 1H5.34043" stroke="white" stroke-width="2" stroke-linecap="round" stroke-linejoin="round"/>
</svg>
