<svg width="20" height="20" viewBox="0 0 20 20" fill="none" xmlns="http://www.w3.org/2000/svg">
<g clip-path="url(#clip0_1777_2306)">
<path d="M19.0168 0H15.9812C15.7208 0 15.471 0.103474 15.2868 0.28766C15.1026 0.471845 14.9992 0.721654 14.9992 0.982131C14.9992 1.24261 15.1026 1.49242 15.2868 1.6766C15.471 1.86079 15.7208 1.96426 15.9812 1.96426H16.6459L13.9867 4.62361C12.834 3.76646 11.4359 3.30357 9.99944 3.30357C8.56302 3.30357 7.16484 3.76646 6.01216 4.62361L5.67423 4.28566L6.85497 3.10532C6.94619 3.0141 7.01855 2.90581 7.06791 2.78662C7.11728 2.66743 7.14269 2.53969 7.14269 2.41069C7.14269 2.28168 7.11728 2.15394 7.06791 2.03475C7.01855 1.91557 6.94619 1.80727 6.85497 1.71605C6.76375 1.62483 6.65546 1.55247 6.53628 1.5031C6.4171 1.45373 6.28937 1.42832 6.16037 1.42832C5.89984 1.42832 5.64998 1.53182 5.46576 1.71605L4.28547 2.89684L3.35294 1.96426H4.01763C4.2781 1.96426 4.52789 1.86079 4.71207 1.6766C4.89625 1.49242 4.99972 1.24261 4.99972 0.982131C4.99972 0.721654 4.89625 0.471845 4.71207 0.28766C4.52789 0.103474 4.2781 0 4.01763 0H0.982088C0.721622 0 0.471824 0.103474 0.287647 0.28766C0.10347 0.471845 0 0.721654 0 0.982131V4.01781C0 4.27829 0.10347 4.5281 0.287647 4.71228C0.471824 4.89647 0.721622 4.99994 0.982088 4.99994C1.24255 4.99994 1.49235 4.89647 1.67653 4.71228C1.86071 4.5281 1.96418 4.27829 1.96418 4.01781V3.35309L2.89671 4.28566L1.71731 5.46512C1.62415 5.55586 1.54993 5.66422 1.49897 5.78388C1.44802 5.90355 1.42134 6.03214 1.42048 6.16221C1.41963 6.29227 1.44461 6.4212 1.49399 6.54153C1.54336 6.66186 1.61614 6.77118 1.70811 6.86314C1.80007 6.95511 1.90939 7.0279 2.02971 7.07728C2.15003 7.12665 2.27896 7.15164 2.40902 7.15078C2.53907 7.14993 2.66766 7.12325 2.78732 7.07229C2.90698 7.02133 3.01533 6.94711 3.10608 6.85394L4.28547 5.67449L4.6234 6.01243C3.76484 7.16441 3.3018 8.56314 3.30339 9.99988C3.30339 13.6923 6.30723 16.6962 9.99944 16.6962C11.4388 16.6978 12.8399 16.2331 13.993 15.3717L15.0438 16.4239L13.859 17.6087C13.6748 17.793 13.5713 18.0428 13.5713 18.3034C13.5713 18.5639 13.6748 18.8138 13.859 18.998C14.0433 19.1822 14.2931 19.2857 14.5536 19.2857C14.8142 19.2857 15.064 19.1822 15.2482 18.998L16.4308 17.815L18.3222 19.7114C18.5062 19.8958 18.7559 19.9997 19.0164 20C19.2769 20.0003 19.5269 19.8972 19.7114 19.7132C19.8958 19.5292 19.9997 19.2794 20 19.0189C20.0003 18.7584 19.8972 18.5084 19.7132 18.3239L17.8191 16.4284L18.9971 15.2503C19.1814 15.066 19.2849 14.8162 19.2849 14.5556C19.2849 14.2951 19.1814 14.0452 18.9971 13.861C18.8129 13.6768 18.5631 13.5733 18.3025 13.5733C18.042 13.5733 17.7922 13.6768 17.6079 13.861L16.4317 15.0373L15.3804 13.9829C16.2353 12.8303 16.6964 11.433 16.6955 9.99796C16.6946 8.56288 16.2318 7.16622 15.3755 6.01466L18.0347 3.35309V4.01781C18.0347 4.27829 18.1382 4.5281 18.3223 4.71228C18.5065 4.89647 18.7563 4.99994 19.0168 4.99994C19.2773 4.99994 19.5271 4.89647 19.7112 4.71228C19.8954 4.5281 19.9989 4.27829 19.9989 4.01781V0.982131C19.9989 0.721654 19.8954 0.471845 19.7112 0.28766C19.5271 0.103474 19.2773 0 19.0168 0ZM5.26756 9.99988C5.26756 9.06397 5.54508 8.14907 6.06503 7.37088C6.58497 6.59269 7.32399 5.98617 8.18863 5.62801C9.05326 5.26984 10.0047 5.17613 10.9226 5.35872C11.8405 5.54131 12.6836 5.992 13.3454 6.65379C14.0071 7.31559 14.4578 8.15876 14.6404 9.0767C14.823 9.99463 14.7293 10.9461 14.3711 11.8108C14.013 12.6755 13.4065 13.4145 12.6283 13.9345C11.8502 14.4544 10.9353 14.732 9.99944 14.732C8.7449 14.7306 7.54215 14.2315 6.65506 13.3444C5.76797 12.4573 5.26898 11.2545 5.26756 9.99988Z" fill="#A3A3A3"/>
</g>
<defs>
<clipPath id="clip0_1777_2306">
<rect width="20" height="20" fill="white"/>
</clipPath>
</defs>
</svg>
