<svg width="18" height="16" viewBox="0 0 18 16" fill="none" xmlns="http://www.w3.org/2000/svg">
<path d="M17 5.5594C17.0027 6.75623 16.5285 7.90755 15.6768 8.77167C13.7239 10.7403 11.8295 12.7928 9.8047 14.6891C9.3399 15.1169 8.60309 15.1013 8.15908 14.6541L2.32302 8.77245C0.558995 6.99442 0.558995 4.12438 2.32302 2.34713C2.73993 1.92168 3.24138 1.58297 3.79694 1.35154C4.35251 1.12011 4.95064 1.00078 5.55505 1.00078C6.15947 1.00078 6.75759 1.12011 7.31316 1.35154C7.86873 1.58297 8.37017 1.92168 8.78709 2.34713L8.99989 2.56025L9.2119 2.34713C9.62932 1.92226 10.1308 1.58388 10.6863 1.35237C11.2417 1.12086 11.8396 1.001 12.4439 1C13.6599 1 14.8224 1.48534 15.676 2.34713C16.528 3.21113 17.0025 4.36247 17 5.5594Z" stroke="#D4D4D4" stroke-width="1.5" stroke-linejoin="round"/>
</svg>
