<svg width="16" height="15" viewBox="0 0 16 15" fill="none" xmlns="http://www.w3.org/2000/svg">
<path d="M11.3472 3.625C11.6336 3.625 12.0063 3.87722 12.0562 4.3418L12.062 4.4375C12.0836 6.64719 10.5318 8.62765 7.56104 10.8389C4.59014 8.62768 3.03913 6.64699 3.06104 4.4375C3.06642 3.91204 3.47037 3.625 3.77588 3.625C3.98041 3.62511 4.21065 3.71134 4.50537 4.00391C4.64649 4.14402 4.75929 4.29144 4.8335 4.40234C4.86873 4.455 4.89038 4.4929 4.89893 4.50781L4.88232 4.47461L4.97998 4.65234C5.51691 5.56028 6.49585 6.12486 7.56104 6.125C8.62641 6.125 9.60608 5.56044 10.1431 4.65234L10.2407 4.47461L10.231 4.49414C10.2273 4.50125 10.2239 4.50655 10.2222 4.50977C10.2189 4.51588 10.2201 4.51488 10.2241 4.50781C10.2327 4.49285 10.2544 4.45491 10.2896 4.40234C10.3637 4.29151 10.4757 4.14392 10.6167 4.00391C10.9116 3.71111 11.1426 3.62506 11.3472 3.625Z" stroke="white" stroke-width="6" stroke-linecap="round" stroke-linejoin="round"/>
</svg>
