<svg width="16" height="16" viewBox="0 0 16 16" fill="none" xmlns="http://www.w3.org/2000/svg">
<path d="M10 16C9.74418 15.9998 9.49516 15.9177 9.2895 15.7658L9.2565 15.7403L4.6835 11.9947H1.2C0.88174 11.9947 0.576515 11.8684 0.351472 11.6436C0.126428 11.4188 0 11.114 0 10.7961V5.20311C0 4.88522 0.126428 4.58035 0.351472 4.35557C0.576515 4.13079 0.88174 4.00451 1.2 4.00451H4.6825L9.2555 0.258882L9.2885 0.233412C9.46728 0.10193 9.67907 0.0225643 9.90032 0.00414322C10.1216 -0.0142778 10.3436 0.0289679 10.5417 0.12907C10.7398 0.229172 10.9062 0.382205 11.0224 0.571147C11.1387 0.760088 11.2001 0.97753 11.2 1.19928V14.8004C11.2 15.1183 11.0736 15.4232 10.8485 15.6479C10.6235 15.8727 10.3183 16 10 16ZM14.4 11.9952C14.2636 11.9951 14.1294 11.9602 14.0103 11.8937C13.8912 11.8272 13.791 11.7315 13.7194 11.6154C13.6478 11.4994 13.6071 11.3671 13.6012 11.2309C13.5952 11.0947 13.6243 10.9593 13.6855 10.8375C14.16 9.89363 14.4005 8.93975 14.4005 7.99984C14.4005 7.03297 14.1675 6.10605 13.688 5.16665C13.5961 4.97842 13.5819 4.76168 13.6484 4.56308C13.7149 4.36448 13.8568 4.19989 14.0435 4.10473C14.2303 4.00956 14.447 3.99142 14.647 4.05422C14.847 4.11701 15.0143 4.25572 15.113 4.4405C15.71 5.61063 16 6.77477 16 7.99984C16 9.18995 15.7 10.3861 15.115 11.5547C15.0484 11.6871 14.9463 11.7984 14.82 11.8762C14.6938 11.954 14.5483 11.9952 14.4 11.9952Z" fill="white"/>
</svg>
