<svg width="20" height="20" viewBox="0 0 20 20" fill="none" xmlns="http://www.w3.org/2000/svg">
<path d="M12 18C11.7442 17.9998 11.4952 17.9177 11.2895 17.7658L11.2565 17.7403L6.6835 13.9947H3.2C2.88174 13.9947 2.57652 13.8684 2.35147 13.6436C2.12643 13.4188 2 13.114 2 12.7961V7.20311C2 6.88522 2.12643 6.58035 2.35147 6.35557C2.57652 6.13079 2.88174 6.00451 3.2 6.00451H6.6825L11.2555 2.25888L11.2885 2.23341C11.4673 2.10193 11.6791 2.02256 11.9003 2.00414C12.1216 1.98572 12.3436 2.02897 12.5417 2.12907C12.7398 2.22917 12.9062 2.38221 13.0224 2.57115C13.1387 2.76009 13.2001 2.97753 13.2 3.19928V16.8004C13.2 17.1183 13.0736 17.4232 12.8485 17.6479C12.6235 17.8727 12.3183 18 12 18ZM16.4 13.9952C16.2636 13.9951 16.1294 13.9602 16.0103 13.8937C15.8912 13.8272 15.791 13.7315 15.7194 13.6154C15.6478 13.4994 15.6071 13.367 15.6012 13.2309C15.5952 13.0947 15.6243 12.9593 15.6855 12.8375C16.16 11.8936 16.4005 10.9397 16.4005 9.99984C16.4005 9.03297 16.1675 8.10605 15.688 7.16665C15.5961 6.97842 15.5819 6.76168 15.6484 6.56308C15.7149 6.36448 15.8568 6.19989 16.0435 6.10473C16.2303 6.00956 16.447 5.99142 16.647 6.05422C16.847 6.11701 17.0143 6.25572 17.113 6.4405C17.71 7.61063 18 8.77477 18 9.99984C18 11.19 17.7 12.3861 17.115 13.5547C17.0484 13.6871 16.9463 13.7984 16.82 13.8762C16.6938 13.954 16.5483 13.9952 16.4 13.9952Z" fill="white"/>
<path d="M18 18L2 2" stroke="#5C5C5C" stroke-width="3" stroke-miterlimit="10" stroke-linecap="round"/>
<path d="M18 18L2 2" stroke="white" stroke-width="1.5" stroke-miterlimit="10" stroke-linecap="round"/>
</svg>
