<svg width="16" height="16" viewBox="0 0 16 16" fill="none" xmlns="http://www.w3.org/2000/svg">
<path d="M9.95986 7.97119L15.5263 2.40478C15.7904 2.14107 15.939 1.78321 15.9394 1.40993C15.9397 1.03665 15.7917 0.678534 15.528 0.414353C15.2643 0.150173 14.9065 0.00157286 14.5332 0.0012432C14.1599 0.00091355 13.8018 0.148881 13.5376 0.412596L7.97119 5.979L2.40478 0.412596C2.1406 0.148415 1.7823 0 1.40869 0C1.03508 0 0.676776 0.148415 0.412596 0.412596C0.148415 0.676776 0 1.03508 0 1.40869C0 1.7823 0.148415 2.1406 0.412596 2.40478L5.979 7.97119L0.412596 13.5376C0.148415 13.8018 0 14.1601 0 14.5337C0 14.9073 0.148415 15.2656 0.412596 15.5298C0.676776 15.794 1.03508 15.9424 1.40869 15.9424C1.7823 15.9424 2.1406 15.794 2.40478 15.5298L7.97119 9.96338L13.5376 15.5298C13.8018 15.794 14.1601 15.9424 14.5337 15.9424C14.9073 15.9424 15.2656 15.794 15.5298 15.5298C15.794 15.2656 15.9424 14.9073 15.9424 14.5337C15.9424 14.1601 15.794 13.8018 15.5298 13.5376L9.95986 7.97119Z" fill="#989898"/>
</svg>
