<svg width="30" height="30" viewBox="0 0 30 30" fill="none" xmlns="http://www.w3.org/2000/svg">
<g id="logo-apple">
<path id="Vector" d="M20.4567 8.01917C18.0942 8.01917 17.0958 9.14651 15.4505 9.14651C13.7636 9.14651 12.4768 8.02737 10.4296 8.02737C8.42567 8.02737 6.28875 9.25081 4.93172 11.335C3.02625 14.274 3.34969 19.8094 6.43582 24.525C7.53973 26.2131 9.01395 28.1063 10.9475 28.1268H10.9827C12.6632 28.1268 13.1624 27.0264 15.4751 27.0135H15.5102C17.7884 27.0135 18.2454 28.1203 19.9188 28.1203H19.954C21.8876 28.0998 23.4409 26.0022 24.5448 24.3205C25.3393 23.1112 25.6347 22.5041 26.244 21.136C21.7798 19.4414 21.0626 13.1127 25.4776 10.6864C24.13 8.99885 22.2362 8.02151 20.4509 8.02151L20.4567 8.01917Z" fill="white"/>
<path id="Vector_2" d="M19.9365 1.875C18.5302 1.97051 16.8896 2.86582 15.9287 4.03477C15.0568 5.09414 14.3396 6.66563 14.6209 8.18965H14.7334C16.231 8.18965 17.7638 7.28789 18.6591 6.13242C19.5216 5.03262 20.1755 3.47402 19.9365 1.875Z" fill="white"/>
</g>
</svg>
