<svg width="20" height="20" viewBox="0 0 20 20" fill="none" xmlns="http://www.w3.org/2000/svg">
<g id="megaphone">
<path id="Vector" d="M1.875 6.87506V6.90084C1.87408 7.06189 1.81593 7.21738 1.71094 7.33951V7.34146C1.5 7.59068 1.25 8.03678 1.25 8.75006C1.25 9.39654 1.45703 9.85279 1.70625 10.1528C1.81559 10.2859 1.87525 10.4528 1.875 10.6251C1.875 10.9566 2.0067 11.2745 2.24112 11.5089C2.47554 11.7434 2.79348 11.8751 3.125 11.8751H3.4375C3.52038 11.8751 3.59987 11.8421 3.65847 11.7835C3.71708 11.7249 3.75 11.6454 3.75 11.5626V5.93756C3.75 5.85468 3.71708 5.77519 3.65847 5.71659C3.59987 5.65798 3.52038 5.62506 3.4375 5.62506H3.125C2.79348 5.62506 2.47554 5.75675 2.24112 5.99117C2.0067 6.22559 1.875 6.54354 1.875 6.87506ZM17.6633 7.28717L17.627 7.28053C17.5912 7.27371 17.559 7.25465 17.5358 7.22662C17.5127 7.1986 17.5 7.16337 17.5 7.12701V2.42193C17.5 1.92818 17.1723 1.48443 16.684 1.31568C16.2184 1.15514 15.7332 1.28599 15.4465 1.64889C14.8365 2.37725 14.166 3.05271 13.4422 3.66803C12.5191 4.44928 11.6359 5.00592 10.825 5.32076C10.7659 5.34331 10.715 5.38328 10.679 5.43538C10.6431 5.48749 10.6239 5.54927 10.6238 5.61256V11.6797C10.6239 11.8019 10.6598 11.9214 10.7271 12.0234C10.7944 12.1254 10.8901 12.2054 11.0023 12.2536C11.7578 12.5774 12.5742 13.1063 13.4242 13.827C14.1535 14.4479 14.8289 15.1295 15.443 15.8645C15.5414 15.9879 15.6669 16.087 15.8099 16.1538C15.9529 16.2207 16.1094 16.2536 16.2672 16.2501C16.4059 16.2494 16.5436 16.2265 16.675 16.1821C17.1762 16.0157 17.5 15.5879 17.5 15.0938V10.3723C17.5 10.3354 17.5131 10.2998 17.5369 10.2716C17.5607 10.2434 17.5937 10.2246 17.6301 10.2184L17.6633 10.2129C18.0391 10.111 18.75 9.67467 18.75 8.75006C18.75 7.82545 18.0391 7.38912 17.6633 7.28717ZM9.375 12.5001V5.93756C9.375 5.85468 9.34208 5.77519 9.28347 5.71659C9.22487 5.65798 9.14538 5.62506 9.0625 5.62506H5.3125C5.22962 5.62506 5.15013 5.65798 5.09153 5.71659C5.03292 5.77519 5 5.85468 5 5.93756V17.8126C5 18.0612 5.09877 18.2997 5.27459 18.4755C5.4504 18.6513 5.68886 18.7501 5.9375 18.7501H7.98633C8.18108 18.7517 8.37362 18.7087 8.54919 18.6244C8.72477 18.5401 8.87871 18.4167 8.99922 18.2637C9.12278 18.1053 9.20588 17.9192 9.24134 17.7215C9.2768 17.5238 9.26355 17.3204 9.20273 17.129C9.13945 16.9266 9.06094 16.6993 8.97734 16.4575C8.66836 15.5629 8.26094 15.0094 8.15234 13.7497C8.47903 13.7425 8.78994 13.6077 9.01847 13.3742C9.24699 13.1406 9.37498 12.8268 9.375 12.5001Z" fill="white"/>
</g>
</svg>
