<svg width="20" height="20" viewBox="0 0 20 20" fill="none" xmlns="http://www.w3.org/2000/svg">
<path d="M13.1073 11.4246C13.6758 11.4248 14.221 11.6508 14.623 12.0528C15.025 12.4548 15.251 12.9999 15.2512 13.5684V14.4435C15.2513 14.9905 15.0803 15.5238 14.7622 15.9687C13.2894 18.0306 10.8824 19.0506 7.62227 19.0506C4.36212 19.0506 1.95609 18.0287 0.486163 15.9659C0.169801 15.5216 -0.000143803 14.9898 9.13022e-08 14.4445V13.5675C0.000504494 12.9995 0.226308 12.4548 0.627869 12.0531C1.02943 11.6514 1.57396 11.4253 2.14198 11.4246H13.1073Z" fill="url(#paint0_linear_4038_1479)"/>
<path d="M13.1073 11.4246C13.6758 11.4248 14.221 11.6508 14.623 12.0528C15.025 12.4548 15.251 12.9999 15.2512 13.5684V14.4435C15.2513 14.9905 15.0803 15.5238 14.7622 15.9687C13.2894 18.0306 10.8824 19.0506 7.62227 19.0506C4.36212 19.0506 1.95609 18.0287 0.486163 15.9659C0.169801 15.5216 -0.000143803 14.9898 9.13022e-08 14.4445V13.5675C0.000504494 12.9995 0.226308 12.4548 0.627869 12.0531C1.02943 11.6514 1.57396 11.4253 2.14198 11.4246H13.1073Z" fill="url(#paint1_linear_4038_1479)"/>
<path d="M13.1073 11.4246C13.6758 11.4248 14.221 11.6508 14.623 12.0528C15.025 12.4548 15.251 12.9999 15.2512 13.5684V14.4435C15.2513 14.9905 15.0803 15.5238 14.7622 15.9687C13.2894 18.0306 10.8824 19.0506 7.62227 19.0506C4.36212 19.0506 1.95609 18.0287 0.486163 15.9659C0.169801 15.5216 -0.000143803 14.9898 9.13022e-08 14.4445V13.5675C0.000504494 12.9995 0.226308 12.4548 0.627869 12.0531C1.02943 11.6514 1.57396 11.4253 2.14198 11.4246H13.1073Z" fill="url(#paint2_radial_4038_1479)" fill-opacity="0.25"/>
<path d="M7.62226 -0.00976562C8.24818 -0.00976563 8.86797 0.113517 9.44624 0.353045C10.0245 0.592572 10.5499 0.943653 10.9925 1.38624C11.4351 1.82883 11.7862 2.35426 12.0257 2.93253C12.2653 3.5108 12.3886 4.13059 12.3886 4.7565C12.3886 5.38242 12.2653 6.00221 12.0257 6.58048C11.7862 7.15875 11.4351 7.68418 10.9925 8.12677C10.5499 8.56936 10.0245 8.92044 9.44624 9.15996C8.86797 9.39949 8.24818 9.52277 7.62226 9.52277C6.35816 9.52277 5.14583 9.02062 4.25197 8.12677C3.35812 7.23292 2.85596 6.0206 2.85596 4.7565C2.85596 3.49241 3.35812 2.28009 4.25197 1.38624C5.14583 0.492394 6.35816 -0.00976562 7.62226 -0.00976562Z" fill="url(#paint3_linear_4038_1479)"/>
<path d="M14.3368 20C14.1472 19.9998 13.9655 19.9244 13.8316 19.7903L9.62865 15.5883C9.01464 14.9673 8.67137 14.1286 8.67384 13.2553C8.67631 12.382 9.02432 11.5452 9.64183 10.9277C10.2593 10.3102 11.0961 9.9622 11.9694 9.95973C12.8427 9.95726 13.6815 10.3005 14.3025 10.9145L14.3368 10.9488L14.3711 10.9145C14.9921 10.3005 15.8309 9.95726 16.7042 9.95973C17.5774 9.9622 18.4143 10.3102 19.0318 10.9277C19.6493 11.5452 19.9973 12.382 19.9998 13.2553C20.0022 14.1286 19.659 14.9673 19.0449 15.5883L14.842 19.7903C14.7081 19.9244 14.5263 19.9998 14.3368 20Z" fill="url(#paint4_linear_4038_1479)"/>
<defs>
<linearGradient id="paint0_linear_4038_1479" x1="3.6262" y1="12.4388" x2="6.0913" y2="20.3079" gradientUnits="userSpaceOnUse">
<stop offset="0.125" stop-color="#9C6CFE"/>
<stop offset="1" stop-color="#7A41DC"/>
</linearGradient>
<linearGradient id="paint1_linear_4038_1479" x1="7.62513" y1="10.5161" x2="11.0759" y2="23.4098" gradientUnits="userSpaceOnUse">
<stop stop-color="#885EDB" stop-opacity="0"/>
<stop offset="1" stop-color="#E362F8"/>
</linearGradient>
<radialGradient id="paint2_radial_4038_1479" cx="0" cy="0" r="1" gradientTransform="matrix(6.49718 4.74392 -2.34247 3.20817 13.8185 16.1908)" gradientUnits="userSpaceOnUse">
<stop offset="0.436" stop-color="#30116E"/>
<stop offset="0.715" stop-color="#30116E" stop-opacity="0.812"/>
<stop offset="1" stop-color="#30116E" stop-opacity="0"/>
</radialGradient>
<linearGradient id="paint3_linear_4038_1479" x1="5.12376" y1="1.25711" x2="9.98153" y2="9.01472" gradientUnits="userSpaceOnUse">
<stop offset="0.125" stop-color="#9C6CFE"/>
<stop offset="1" stop-color="#7A41DC"/>
</linearGradient>
<linearGradient id="paint4_linear_4038_1479" x1="9.92225" y1="10.5752" x2="16.4425" y2="21.3889" gradientUnits="userSpaceOnUse">
<stop stop-color="#FC92CB"/>
<stop offset="1" stop-color="#D7257D"/>
</linearGradient>
</defs>
</svg>
