<svg width="25" height="28" viewBox="0 0 27 30" fill="none" xmlns="http://www.w3.org/2000/svg">
<path d="M11.7509 4.44672C12.5258 4.44761 13.3143 4.53427 14.2773 4.71429V9.185H9.22647V4.71234C10.1881 4.53078 10.9762 4.44582 11.7509 4.44672Z" stroke="currentColor" stroke-width="2" stroke-linejoin="round"/>
<path d="M11.752 8.00227C17.414 8.00227 22.0038 12.5922 22.0039 18.2542C22.0039 23.9163 17.414 28.5062 11.752 28.5062C6.08994 28.5061 1.5 23.9163 1.5 18.2542C1.50009 12.5923 6.09 8.00235 11.752 8.00227Z" stroke="currentColor" stroke-width="3" stroke-linejoin="round"/>
<path d="M17.5109 16.0804C18.3585 19.3871 17.056 22.4778 14 24.0849" stroke="currentColor" stroke-width="2" stroke-linecap="round"/>
<path d="M17.8544 5.26368C18.2762 5.62023 18.9071 5.56736 19.2637 5.14559C19.6202 4.72382 19.5674 4.09286 19.1456 3.73632L18.5 4.5L17.8544 5.26368ZM12 5.00002L12.9648 4.73711C12.705 3.78357 12.8033 3.33498 12.887 3.17559C12.9237 3.10567 13.0044 2.9828 13.4028 2.98121C13.8341 2.9795 14.4756 3.13933 15.2813 3.5343C16.0717 3.92174 16.9558 4.50406 17.8544 5.26368L18.5 4.5L19.1456 3.73632C18.1442 2.88982 17.1239 2.21018 16.1617 1.73848C15.2148 1.2743 14.2557 0.977808 13.3949 0.98123C12.5012 0.984783 11.5983 1.32852 11.1165 2.2453C10.6818 3.07264 10.7267 4.13087 11.0352 5.26292L12 5.00002Z" fill="currentColor"/>
<path d="M18.5 4.5C20.435 6.26282 20.5936 6.92515 23 5" stroke="currentColor" stroke-width="2" stroke-linecap="round"/>
<path d="M21.5312 4.22404L21 2" stroke="currentColor" stroke-width="2" stroke-linecap="round"/>
<path d="M22.8018 4.46395L23.5787 2.31337" stroke="currentColor" stroke-width="2" stroke-linecap="round"/>
<path d="M23.5853 5.22635L25.6253 4.19341" stroke="currentColor" stroke-width="2" stroke-linecap="round"/>
</svg>
