<svg width="26" height="26" viewBox="0 0 16 16" fill="none" xmlns="http://www.w3.org/2000/svg">
<mask id="mask0_898_3634" style="mask-type:luminance" maskUnits="userSpaceOnUse" x="0" y="0" width="16" height="16">
<path d="M16 0H0V16H16V0Z" fill="white"/>
</mask>
<g mask="url(#mask0_898_3634)">
<path d="M1 1.34375C1.29167 1.34375 1.53125 1.43749 1.71875 1.62495C1.90625 1.81249 2 2.05208 2 2.34375V12.8438C2.02083 13.1562 2.1875 13.3229 2.5 13.3438H15C15.2917 13.3438 15.5313 13.4375 15.7188 13.625C15.9063 13.8125 16 14.0521 16 14.3438C16 14.6354 15.9063 14.875 15.7188 15.0625C15.5313 15.25 15.2917 15.3438 15 15.3438H2.5C1.79167 15.3229 1.19792 15.0833 0.71875 14.625C0.260417 14.1458 0.0208333 13.5521 0 12.8438V2.34375C0 2.05208 0.09375 1.81249 0.28125 1.62495C0.46875 1.43749 0.708333 1.34375 1 1.34375ZM4 4.34375C4 4.05208 4.09375 3.81249 4.28125 3.62495C4.46875 3.43749 4.70833 3.34375 5 3.34375H11C11.2917 3.34375 11.5313 3.43749 11.7188 3.62495C11.9063 3.81249 12 4.05208 12 4.34375C12 4.63542 11.9063 4.87501 11.7188 5.06255C11.5313 5.25001 11.2917 5.34375 11 5.34375H5C4.70833 5.34375 4.46875 5.25001 4.28125 5.06255C4.09375 4.87501 4 4.63542 4 4.34375ZM5 6.34375H9C9.29167 6.34375 9.53125 6.4375 9.71875 6.625C9.90625 6.8125 10 7.05208 10 7.34375C10 7.63542 9.90625 7.875 9.71875 8.0625C9.53125 8.25 9.29167 8.34375 9 8.34375H5C4.70833 8.34375 4.46875 8.25 4.28125 8.0625C4.09375 7.875 4 7.63542 4 7.34375C4 7.05208 4.09375 6.8125 4.28125 6.625C4.46875 6.4375 4.70833 6.34375 5 6.34375ZM5 9.34375H13C13.2917 9.34375 13.5313 9.4375 13.7188 9.625C13.9063 9.8125 14 10.0521 14 10.3438C14 10.6354 13.9063 10.875 13.7188 11.0625C13.5313 11.25 13.2917 11.3438 13 11.3438H5C4.70833 11.3438 4.46875 11.25 4.28125 11.0625C4.09375 10.875 4 10.6354 4 10.3438C4 10.0521 4.09375 9.8125 4.28125 9.625C4.46875 9.4375 4.70833 9.34375 5 9.34375Z" fill="currentColor"/>
</g>
</svg>
