<svg width="26" height="26" viewBox="0 0 26 26" fill="none" xmlns="http://www.w3.org/2000/svg">
<path d="M10.4609 2.6543H3.82031C3.28097 2.6543 2.84375 3.09152 2.84375 3.63086V10.2715C2.84375 10.8108 3.28097 11.248 3.82031 11.248H10.4609C11.0003 11.248 11.4375 10.8108 11.4375 10.2715V3.63086C11.4375 3.09152 11.0003 2.6543 10.4609 2.6543Z" stroke="currentColor" stroke-width="2" stroke-linecap="round" stroke-linejoin="round"/>
<path d="M22.1797 2.6543H15.5391C14.9997 2.6543 14.5625 3.09152 14.5625 3.63086V10.2715C14.5625 10.8108 14.9997 11.248 15.5391 11.248H22.1797C22.719 11.248 23.1562 10.8108 23.1562 10.2715V3.63086C23.1562 3.09152 22.719 2.6543 22.1797 2.6543Z" stroke="currentColor" stroke-width="2" stroke-linecap="round" stroke-linejoin="round"/>
<path d="M10.4609 14.373H3.82031C3.28097 14.373 2.84375 14.8103 2.84375 15.3496V21.9902C2.84375 22.5296 3.28097 22.9668 3.82031 22.9668H10.4609C11.0003 22.9668 11.4375 22.5296 11.4375 21.9902V15.3496C11.4375 14.8103 11.0003 14.373 10.4609 14.373Z" stroke="currentColor" stroke-width="2" stroke-linecap="round" stroke-linejoin="round"/>
<path d="M22.1797 14.373H15.5391C14.9997 14.373 14.5625 14.8103 14.5625 15.3496V21.9902C14.5625 22.5296 14.9997 22.9668 15.5391 22.9668H22.1797C22.719 22.9668 23.1562 22.5296 23.1562 21.9902V15.3496C23.1562 14.8103 22.719 14.373 22.1797 14.373Z" stroke="currentColor" stroke-width="2" stroke-linecap="round" stroke-linejoin="round"/>
</svg>
